<svg width="23" height="26" viewBox="0 0 23 26" fill="none" xmlns="http://www.w3.org/2000/svg">
<path d="M3.005 0.924999C3.575 0.924999 4.1 1.075 4.58 1.375C5.06 1.645 5.42 2.065 5.66 2.635L12.275 17.755L11.285 18.205L18.035 2.68C18.545 1.48 19.34 0.909999 20.42 0.969998C21.17 0.969998 21.77 1.21 22.22 1.69C22.7 2.14 22.94 2.71 22.94 3.4C22.94 3.61 22.895 3.835 22.805 4.075C22.745 4.315 22.67 4.54 22.58 4.75L14.165 23.29C13.685 24.37 12.92 24.94 11.87 25C11.3 25.09 10.745 24.985 10.205 24.685C9.695 24.385 9.305 23.92 9.035 23.29L0.665 4.75C0.605 4.6 0.53 4.405 0.44 4.165C0.38 3.925 0.35 3.64 0.35 3.31C0.35 2.77 0.59 2.245 1.07 1.735C1.55 1.195 2.195 0.924999 3.005 0.924999Z" fill="#4E3ABA"/>
</svg>
