<?xml version="1.0" encoding="UTF-8" standalone="no"?>
<svg
   width="51.500099"
   height="37.714973"
   viewBox="0 0 51.500099 37.714973"
   fill="none"
   version="1.1"
   id="svg2"
   sodipodi:docname="kivvly (1).svg"
   inkscape:version="1.4 (e7c3feb1, 2024-10-09)"
   xmlns:inkscape="http://www.inkscape.org/namespaces/inkscape"
   xmlns:sodipodi="http://sodipodi.sourceforge.net/DTD/sodipodi-0.dtd"
   xmlns="http://www.w3.org/2000/svg"
   xmlns:svg="http://www.w3.org/2000/svg">
  <defs
     id="defs2" />
  <sodipodi:namedview
     id="namedview2"
     pagecolor="#ffffff"
     bordercolor="#000000"
     borderopacity="0.25"
     inkscape:showpageshadow="2"
     inkscape:pageopacity="0.0"
     inkscape:pagecheckerboard="0"
     inkscape:deskcolor="#d1d1d1"
     inkscape:zoom="3.1044961"
     inkscape:cx="34.627198"
     inkscape:cy="18.038354"
     inkscape:window-width="1712"
     inkscape:window-height="1069"
     inkscape:window-x="0"
     inkscape:window-y="38"
     inkscape:window-maximized="0"
     inkscape:current-layer="svg2" />
  <path
     d="m 2.5,26.575 c 1.5027,0.2644 23.3058,19.3884 46.5001,0"
     stroke="#000000"
     stroke-width="5"
     stroke-linecap="round"
     id="path1" />
  <path
     d="m 6.142,0 c 0.57,0 1.095,0.15 1.575,0.45 0.48,0.27 0.84,0.69 1.08,1.26 l 6.615,15.12 -0.99,0.45 6.75,-15.525 c 0.51,-1.2 1.305,-1.77 2.385,-1.71 0.75,0 1.35,0.24 1.8,0.72 0.48,0.45 0.72,1.02 0.72,1.71 0,0.21 -0.045,0.435 -0.135,0.675 -0.06,0.24 -0.135,0.465 -0.225,0.675 l -8.415,18.54 c -0.48,1.08 -1.245,1.65 -2.295,1.71 -0.57,0.09 -1.125,-0.015 -1.665,-0.315 -0.51,-0.3 -0.9,-0.765 -1.17,-1.395 L 3.802,3.825 C 3.742,3.675 3.667,3.48 3.577,3.24 3.517,3 3.487,2.715 3.487,2.385 3.487,1.845 3.727,1.32 4.207,0.81 4.687,0.27 5.332,0 6.142,0 Z m 23.0098,0 c 0.57,0 1.095,0.15 1.575,0.45 0.48,0.27 0.84,0.69 1.08,1.26 l 6.615,15.12 -0.99,0.45 6.75,-15.525 c 0.51,-1.2 1.305,-1.77 2.385,-1.71 0.75,0 1.35,0.24 1.8,0.72 0.48,0.45 0.72,1.02 0.72,1.71 0,0.21 -0.045,0.435 -0.135,0.675 -0.06,0.24 -0.135,0.465 -0.225,0.675 l -8.415,18.54 c -0.48,1.08 -1.245,1.65 -2.295,1.71 -0.57,0.09 -1.125,-0.015 -1.665,-0.315 -0.51,-0.3 -0.9,-0.765 -1.17,-1.395 l -8.37,-18.54 c -0.06,-0.15 -0.135,-0.345 -0.225,-0.585 -0.06,-0.24 -0.09,-0.525 -0.09,-0.855 0,-0.54 0.24,-1.065 0.72,-1.575 0.48,-0.54 1.125,-0.81 1.935,-0.81 z"
     fill="#4e3aba"
     id="path2" />
</svg>
