<svg width="135" height="48" viewBox="0 0 135 48" fill="none" xmlns="http://www.w3.org/2000/svg">
<path d="M35.4999 36.5C37.0026 36.7644 58.8057 55.8884 82 36.5" stroke="black" stroke-width="5" stroke-linecap="round"/>
<path d="M6.075 34C5.295 34 4.65 33.745 4.14 33.235C3.63 32.695 3.375 32.035 3.375 31.255V3.445C3.375 2.665 3.63 2.02 4.14 1.51C4.65 0.969999 5.295 0.7 6.075 0.7C6.855 0.7 7.5 0.969999 8.01 1.51C8.52 2.02 8.775 2.665 8.775 3.445V31.255C8.775 32.035 8.52 32.695 8.01 33.235C7.5 33.745 6.855 34 6.075 34ZM20.385 9.925C21.075 9.925 21.675 10.21 22.185 10.78C22.695 11.35 22.95 11.905 22.95 12.445C22.95 13.165 22.59 13.84 21.87 14.47L8.325 26.935L8.1 20.725L18.405 10.78C18.975 10.21 19.635 9.925 20.385 9.925ZM21.06 33.955C20.28 33.955 19.62 33.655 19.08 33.055L10.755 24.235L14.85 20.455L22.95 29.275C23.52 29.875 23.805 30.55 23.805 31.3C23.805 32.08 23.49 32.725 22.86 33.235C22.26 33.715 21.66 33.955 21.06 33.955ZM32.7301 31.255C32.7301 32.035 32.4751 32.695 31.9651 33.235C31.4551 33.745 30.8101 34 30.0301 34C29.2501 34 28.6051 33.745 28.0951 33.235C27.5851 32.695 27.3301 32.035 27.3301 31.255V12.67C27.3301 11.89 27.5851 11.245 28.0951 10.735C28.6051 10.195 29.2501 9.925 30.0301 9.925C30.8101 9.925 31.4551 10.195 31.9651 10.735C32.4751 11.245 32.7301 11.89 32.7301 12.67V31.255ZM29.9851 7C28.9651 7 28.2451 6.835 27.8251 6.505C27.4051 6.175 27.1951 5.59 27.1951 4.75V3.895C27.1951 3.025 27.4201 2.44 27.8701 2.14C28.3501 1.81 29.0701 1.645 30.0301 1.645C31.0801 1.645 31.8151 1.81 32.2351 2.14C32.6551 2.47 32.8651 3.055 32.8651 3.895V4.75C32.8651 5.62 32.6401 6.22 32.1901 6.55C31.7401 6.85 31.0051 7 29.9851 7ZM90.6082 31.255C90.6082 32.035 90.3382 32.695 89.7982 33.235C89.2882 33.745 88.6432 34 87.8632 34C87.1132 34 86.4832 33.745 85.9732 33.235C85.4632 32.695 85.2082 32.035 85.2082 31.255V3.445C85.2082 2.665 85.4632 2.02 85.9732 1.51C86.5132 0.969999 87.1732 0.7 87.9532 0.7C88.7332 0.7 89.3632 0.969999 89.8432 1.51C90.3532 2.02 90.6082 2.665 90.6082 3.445V31.255ZM113.193 9.925C113.973 9.925 114.618 10.195 115.128 10.735C115.638 11.245 115.893 11.89 115.893 12.67V31.795C115.893 34.555 115.368 36.745 114.318 38.365C113.298 40.015 111.918 41.2 110.178 41.92C108.438 42.64 106.488 43 104.328 43C103.368 43 102.348 42.925 101.268 42.775C100.188 42.625 99.3029 42.4 98.6129 42.1C97.7129 41.71 97.0829 41.215 96.7229 40.615C96.3929 40.045 96.3329 39.43 96.5429 38.77C96.8129 37.9 97.2479 37.3 97.8479 36.97C98.4479 36.67 99.0779 36.64 99.7379 36.88C100.218 37.03 100.848 37.255 101.628 37.555C102.408 37.885 103.308 38.05 104.328 38.05C105.708 38.05 106.848 37.855 107.748 37.465C108.678 37.105 109.368 36.475 109.818 35.575C110.298 34.705 110.538 33.505 110.538 31.975V28.96L111.483 30.04C110.973 31.03 110.328 31.855 109.548 32.515C108.798 33.145 107.898 33.625 106.848 33.955C105.798 34.285 104.598 34.45 103.248 34.45C101.658 34.45 100.263 34.09 99.0629 33.37C97.8929 32.62 96.9779 31.6 96.3179 30.31C95.6579 28.99 95.3279 27.49 95.3279 25.81V12.67C95.3279 11.89 95.5829 11.245 96.0929 10.735C96.6029 10.195 97.2479 9.925 98.0279 9.925C98.8079 9.925 99.4529 10.195 99.9629 10.735C100.473 11.245 100.728 11.89 100.728 12.67V24.19C100.728 26.14 101.148 27.52 101.988 28.33C102.858 29.11 104.058 29.5 105.588 29.5C106.638 29.5 107.523 29.305 108.243 28.915C108.963 28.495 109.518 27.895 109.908 27.115C110.298 26.305 110.493 25.33 110.493 24.19V12.67C110.493 11.89 110.748 11.245 111.258 10.735C111.768 10.195 112.413 9.925 113.193 9.925Z" fill="black"/>
<path d="M38.4599 9.925C39.0299 9.925 39.5549 10.075 40.0349 10.375C40.5149 10.645 40.8749 11.065 41.1149 11.635L47.7299 26.755L46.7399 27.205L53.4899 11.68C53.9999 10.48 54.7949 9.91 55.8749 9.97C56.6249 9.97 57.2249 10.21 57.6749 10.69C58.1549 11.14 58.3949 11.71 58.3949 12.4C58.3949 12.61 58.3499 12.835 58.2599 13.075C58.1999 13.315 58.1249 13.54 58.0349 13.75L49.6199 32.29C49.1399 33.37 48.3749 33.94 47.3249 34C46.7549 34.09 46.1999 33.985 45.6599 33.685C45.1499 33.385 44.7599 32.92 44.4899 32.29L36.1199 13.75C36.0599 13.6 35.9849 13.405 35.8949 13.165C35.8349 12.925 35.8049 12.64 35.8049 12.31C35.8049 11.77 36.0449 11.245 36.5249 10.735C37.0049 10.195 37.6499 9.925 38.4599 9.925ZM61.4696 9.925C62.0396 9.925 62.5646 10.075 63.0446 10.375C63.5246 10.645 63.8846 11.065 64.1246 11.635L70.7396 26.755L69.7496 27.205L76.4996 11.68C77.0097 10.48 77.8047 9.91 78.8846 9.97C79.6347 9.97 80.2347 10.21 80.6847 10.69C81.1646 11.14 81.4046 11.71 81.4046 12.4C81.4046 12.61 81.3597 12.835 81.2697 13.075C81.2097 13.315 81.1347 13.54 81.0447 13.75L72.6296 32.29C72.1496 33.37 71.3846 33.94 70.3346 34C69.7646 34.09 69.2096 33.985 68.6696 33.685C68.1596 33.385 67.7696 32.92 67.4996 32.29L59.1296 13.75C59.0696 13.6 58.9946 13.405 58.9046 13.165C58.8446 12.925 58.8146 12.64 58.8146 12.31C58.8146 11.77 59.0546 11.245 59.5346 10.735C60.0146 10.195 60.6596 9.925 61.4696 9.925Z" fill="#4E3ABA"/>
</svg>
